<svg width="426" height="653" viewBox="0 0 426 653" fill="none" xmlns="http://www.w3.org/2000/svg">
<path d="M322.905 245.683C400.558 334.529 422.716 406.232 424.276 419.5C426.747 440.5 434.276 516.5 366.776 592.5C299.276 668.5 145.776 677.5 62.2765 592.5C47.077 577.027 35.3355 559.759 26.3615 541.811C26.7812 541.44 27.2117 541.053 27.6534 540.645C35.3459 533.535 42.7421 525.86 50.129 518.419L87.5421 480.932L222.299 346.163L302.572 265.912L322.613 245.975C322.711 245.877 322.808 245.78 322.905 245.683ZM373.703 383.42C370.758 367.239 354.418 355.273 337.827 358.283C331.97 359.138 326.507 360.815 322.077 364.854C312.719 373.388 303.308 383.271 294.362 392.248L240.221 446.453L184.602 502.024C174.9 511.668 163.417 522.362 154.668 532.855C150.377 538.002 149.224 549.589 150.294 556.277C151.561 564.305 156.02 571.479 162.657 576.169C170.403 581.701 177.263 582.86 186.488 582.1C200.589 579.367 206.869 570.224 216.471 560.625C222.228 554.869 228.164 549.135 233.935 543.361L298.745 478.459L347.106 430.132C351.057 426.161 355.487 421.328 359.645 417.594C370.108 408.195 376.365 398.041 373.703 383.42ZM228.276 0C238.47 97.8543 238.357 135.861 281.89 195.901C276.254 201.441 270.675 207.121 265.141 212.66L220.582 257.242L81.882 395.955L10.5616 467.231L4.33704 473.447C-2.36283 435.039 -0.289279 399.898 3.77649 379C11.7765 292 79.7765 156 127.276 84C165.276 26.4001 210.443 4.00006 228.276 0Z" fill="white"/>
</svg>
