<svg width="426" height="653" viewBox="0 0 426 653" fill="none" xmlns="http://www.w3.org/2000/svg">
<path d="M322.905 245.683C400.558 334.529 422.716 406.232 424.276 419.5C426.747 440.5 434.276 516.5 366.776 592.5C299.276 668.5 145.776 677.5 62.2765 592.5C47.077 577.027 35.3355 559.759 26.3615 541.811C26.7812 541.44 27.2117 541.053 27.6534 540.645C35.3458 533.535 42.7421 525.86 50.129 518.419L87.5421 480.932L222.299 346.163L302.572 265.912L322.613 245.975C322.711 245.877 322.808 245.78 322.905 245.683ZM357.561 401.603C354.615 385.422 338.275 373.455 321.684 376.466C315.827 377.321 310.363 378.998 305.934 383.037C296.576 391.57 287.165 401.454 278.22 410.431L224.077 464.636L168.458 520.207C158.756 529.851 147.274 540.545 138.525 551.038C134.233 556.185 133.081 567.772 134.151 574.46C135.418 582.487 139.877 589.662 146.514 594.352C154.26 599.883 161.12 601.042 170.346 600.282C184.446 597.549 190.726 588.406 200.327 578.808C206.084 573.052 212.021 567.318 217.792 561.544L282.603 496.642L330.962 448.314C334.914 444.343 339.344 439.511 343.502 435.776C353.965 426.378 360.222 416.224 357.561 401.603ZM228.276 0C238.47 97.8543 238.357 135.861 281.89 195.901C276.254 201.441 270.675 207.121 265.141 212.66L220.582 257.242L81.882 395.955L10.5616 467.231L4.33704 473.447C-2.36283 435.039 -0.28928 399.898 3.77649 379C11.7765 292 79.7765 156 127.276 84C165.276 26.4001 210.443 4.00006 228.276 0Z" fill="white"/>
</svg>
